<svg xmlns="http://www.w3.org/2000/svg" viewBox="0 0 100 100" width="100" height="100">
  <defs>
    <linearGradient id="g" x1="0%" y1="0%" x2="100%" y2="100%">
      <stop offset="0%" stop-color="#b2dfdb"/>
      <stop offset="100%" stop-color="#80cbc4"/>
    </linearGradient>
    <filter id="s" x="-10%" y="-10%" width="120%" height="120%">
      <feDropShadow dx="0" dy="1" stdDeviation="1.5" flood-opacity="0.15"/>
    </filter>
  </defs>
  <!-- Silhouette métropole (forme simplifiée mais fidèle) -->
  <path fill="url(#g)" stroke="#1e5d5b" stroke-width="0.8" filter="url(#s)"
        d="M18 63 L14 55 L13 47 L15 38 L20 30 L27 24 L36 20 L45 18 L55 18 L64 20 L71 23 L77 28 L81 34 L84 42 L85 49 L84 56 L81 63 L76 69 L69 74 L61 77 L52 79 L43 78 L35 76 L27 72 Z"/>
  <!-- Corse -->
  <path fill="#9ad7d0" stroke="#1e5d5b" stroke-width="0.6"
        d="M78 84 L80 86 L81 88 L81 90 L80 92 L78 93 L76 92 L75 89 L76 86 Z"/>
</svg>

